<svg width="50" height="50" viewBox="0 0 50 50" fill="none" xmlns="http://www.w3.org/2000/svg">
<path d="M25 4.16669C13.4937 4.16669 4.16666 13.4938 4.16666 25C4.16666 36.5063 13.4937 45.8334 25 45.8334C36.5062 45.8334 45.8333 36.5063 45.8333 25C45.8333 13.4938 36.5062 4.16669 25 4.16669ZM30.3875 33.3334L23.5271 26.4729C23.1354 26.0813 22.9167 25.5521 22.9167 25V14.5834C22.9167 13.4334 23.85 12.5 25 12.5C26.15 12.5 27.0833 13.4334 27.0833 14.5834V24.1375L33.3333 30.3875C34.1458 31.2 34.1458 32.5209 33.3333 33.3334C32.5208 34.1459 31.2 34.1459 30.3875 33.3334Z" fill="#7F56D9"/>
</svg>
