<svg width="85" height="80" viewBox="0 0 85 80" fill="none" xmlns="http://www.w3.org/2000/svg">
<path d="M29.6542 49.4172L54.8502 29.8552L29.6542 49.4172Z" fill="black"/>
<path d="M29.6542 49.4172L54.8502 29.8552" stroke="#84CAFF" stroke-width="60"/>
<path d="M74.203 52.1168C62.0629 62.7372 44.1565 61.2821 33.2585 48.7481C22.3599 36.2123 23.3574 18.2157 35.4975 7.59346C47.6375 -3.02785 65.5439 -1.57273 76.4419 10.9622C87.3405 23.498 86.3431 41.4946 74.203 52.1168Z" fill="#84CAFF" stroke="#84CAFF"/>
<path d="M51.2459 30.5242C62.1446 43.06 61.1471 61.0567 49.007 71.6789C36.8669 82.3002 18.9605 80.8451 8.06256 68.3101C-2.83611 55.7743 -1.83861 37.7777 10.3015 27.1555C22.4415 16.5351 40.348 17.9903 51.2459 30.5242Z" fill="#D1E9FF" stroke="#84CAFF"/>
<circle cx="29.5" cy="49.5" r="14.5" fill="#84CAFF"/>
</svg>
