<svg width="141" height="87" viewBox="0 0 141 87" fill="none" xmlns="http://www.w3.org/2000/svg">
<path d="M140.022 2.728L26.9951 0V71.606L140.022 74.334V2.728Z" fill="#84CAFF"/>
<path d="M0 12.222L26.995 0V71.606L0 83.828V12.222Z" fill="#B2DDFF"/>
<path d="M26.995 71.606L140.022 74.334L113.027 86.556L0 83.828L26.995 71.606Z" fill="#B2DDFF"/>
<path d="M0 12.222L113.027 14.95L140.022 2.728L26.995 0L0 12.222Z" fill="#B2DDFF"/>
<path d="M140.022 2.72803L113.027 14.95V86.556L140.022 74.334V2.72803Z" fill="#84CAFF"/>
<path d="M0 12.222L113.027 14.95V86.556L0 83.828V12.222Z" fill="#D1E9FF" fill-opacity="0.8"/>
<circle cx="12" cy="26" r="5" fill="#84CAFF"/>
<circle cx="27" cy="26" r="5" fill="#84CAFF"/>
<circle cx="42" cy="26" r="5" fill="#84CAFF"/>
<circle cx="57" cy="26" r="5" fill="#84CAFF"/>
<circle cx="72" cy="26" r="5" fill="#84CAFF"/>
<circle cx="87" cy="26" r="5" fill="#84CAFF"/>
<circle cx="102" cy="26" r="5" fill="#84CAFF"/>
<circle cx="12" cy="42" r="5" fill="#84CAFF"/>
<circle cx="27" cy="42" r="5" fill="#84CAFF"/>
<circle cx="42" cy="42" r="5" fill="#84CAFF"/>
<circle cx="57" cy="42" r="5" fill="#84CAFF"/>
<circle cx="72" cy="42" r="5" fill="#84CAFF"/>
<circle cx="87" cy="42" r="5" fill="#84CAFF"/>
<circle cx="102" cy="42" r="5" fill="#84CAFF"/>
<circle cx="12" cy="57" r="5" fill="#84CAFF"/>
<circle cx="27" cy="57" r="5" fill="#84CAFF"/>
<circle cx="42" cy="57" r="5" fill="#84CAFF"/>
<circle cx="57" cy="57" r="5" fill="#84CAFF"/>
<circle cx="72" cy="57" r="5" fill="#84CAFF"/>
<circle cx="87" cy="57" r="5" fill="#84CAFF"/>
<circle cx="102" cy="57" r="5" fill="#84CAFF"/>
<circle cx="12" cy="72" r="5" fill="#84CAFF"/>
<circle cx="27" cy="72" r="5" fill="#84CAFF"/>
<circle cx="42" cy="72" r="5" fill="#84CAFF"/>
<circle cx="57" cy="72" r="5" fill="#84CAFF"/>
<circle cx="72" cy="72" r="5" fill="#84CAFF"/>
<circle cx="87" cy="72" r="5" fill="#84CAFF"/>
<circle cx="102" cy="72" r="5" fill="#84CAFF"/>
</svg>
