<svg width="50" height="50" viewBox="0 0 50 50" fill="none" xmlns="http://www.w3.org/2000/svg">
<path d="M11.4583 6.25C10.8833 6.25 10.4167 6.71667 10.4167 7.29167V9.375C10.4167 9.95 10.8833 10.4167 11.4583 10.4167H13.5417C14.1167 10.4167 14.5833 9.95 14.5833 9.375V7.29167C14.5833 6.71667 14.1167 6.25 13.5417 6.25H11.4583ZM19.7917 6.25C19.2167 6.25 18.75 6.71667 18.75 7.29167V9.375C18.75 9.95 19.2167 10.4167 19.7917 10.4167H21.875C22.45 10.4167 22.9167 9.95 22.9167 9.375V7.29167C22.9167 6.71667 22.45 6.25 21.875 6.25H19.7917ZM28.125 6.25C27.55 6.25 27.0833 6.71667 27.0833 7.29167V9.375C27.0833 9.95 27.55 10.4167 28.125 10.4167H30.2083C30.7833 10.4167 31.25 9.95 31.25 9.375V7.29167C31.25 6.71667 30.7833 6.25 30.2083 6.25H28.125ZM36.4583 6.25C35.8833 6.25 35.4167 6.71667 35.4167 7.29167V9.375C35.4167 9.95 35.8833 10.4167 36.4583 10.4167H38.5417C39.1167 10.4167 39.5833 9.95 39.5833 9.375V7.29167C39.5833 6.71667 39.1167 6.25 38.5417 6.25H36.4583ZM8.33333 12.5C6.03542 12.5 4.16667 14.3687 4.16667 16.6667V33.3333C4.16667 35.6312 6.03542 37.5 8.33333 37.5H41.6667C43.9646 37.5 45.8333 35.6312 45.8333 33.3333V16.6667C45.8333 14.3687 43.9646 12.5 41.6667 12.5H8.33333ZM10.4167 16.6667C11.5667 16.6667 12.5 17.6 12.5 18.75C12.5 19.9 11.5667 20.8333 10.4167 20.8333C9.26667 20.8333 8.33333 19.9 8.33333 18.75C8.33333 17.6 9.26667 16.6667 10.4167 16.6667ZM39.5833 29.1667C40.7333 29.1667 41.6667 30.1 41.6667 31.25C41.6667 32.4 40.7333 33.3333 39.5833 33.3333C38.4333 33.3333 37.5 32.4 37.5 31.25C37.5 30.1 38.4333 29.1667 39.5833 29.1667ZM11.4583 39.5833C10.8833 39.5833 10.4167 40.05 10.4167 40.625V42.7083C10.4167 43.2833 10.8833 43.75 11.4583 43.75H13.5417C14.1167 43.75 14.5833 43.2833 14.5833 42.7083V40.625C14.5833 40.05 14.1167 39.5833 13.5417 39.5833H11.4583ZM19.7917 39.5833C19.2167 39.5833 18.75 40.05 18.75 40.625V42.7083C18.75 43.2833 19.2167 43.75 19.7917 43.75H21.875C22.45 43.75 22.9167 43.2833 22.9167 42.7083V40.625C22.9167 40.05 22.45 39.5833 21.875 39.5833H19.7917ZM28.125 39.5833C27.55 39.5833 27.0833 40.05 27.0833 40.625V42.7083C27.0833 43.2833 27.55 43.75 28.125 43.75H30.2083C30.7833 43.75 31.25 43.2833 31.25 42.7083V40.625C31.25 40.05 30.7833 39.5833 30.2083 39.5833H28.125ZM36.4583 39.5833C35.8833 39.5833 35.4167 40.05 35.4167 40.625V42.7083C35.4167 43.2833 35.8833 43.75 36.4583 43.75H38.5417C39.1167 43.75 39.5833 43.2833 39.5833 42.7083V40.625C39.5833 40.05 39.1167 39.5833 38.5417 39.5833H36.4583Z" fill="#7F56D9"/>
</svg>
